<svg xmlns="http://www.w3.org/2000/svg" width="720" height="480" viewBox="0 0 720 480" role="img" aria-label="Gate dashboard showing API keys, users, and access log">
<rect width="720" height="480" rx="8" fill="#1a1410"/>
<rect width="720" height="48" rx="8" fill="#241e18"/>
<rect y="46" width="720" height="2" fill="#2e261e"/>
<circle cx="18" cy="24" r="5" fill="#c0392b"/>
<circle cx="36" cy="24" r="5" fill="#d4a843"/>
<circle cx="54" cy="24" r="5" fill="#5ba86e"/>
<rect x="72" y="12" width="8" height="24" rx="2" fill="#e8753a"/>
<rect x="85" y="12" width="8" height="24" rx="2" fill="#e8753a"/>
<rect x="98" y="12" width="8" height="24" rx="2" fill="#e8753a"/>
<rect x="72" y="21" width="34" height="6" rx="2" fill="#c4a87a"/>
<text x="116" y="28" fill="#c4a87a" font-size="11" font-family="JetBrains Mono,monospace" letter-spacing="2">STOCKYARD · GATE</text>
<rect x="610" y="15" width="92" height="18" rx="3" fill="none" stroke="#5ba86e" stroke-width="1"/>
<text x="656" y="27" text-anchor="middle" fill="#5ba86e" font-size="9" font-family="JetBrains Mono,monospace" letter-spacing="1">PRO</text>
<!-- Stat cards -->
<rect x="16" y="64" width="150" height="64" rx="4" fill="#241e18" stroke="#2e261e" stroke-width="1"/>
<text x="24" y="87" fill="#f0e6d3" font-size="22" font-weight="bold" font-family="JetBrains Mono,monospace">1,847</text>
<text x="24" y="103" fill="#a0845c" font-size="9" font-family="JetBrains Mono,monospace" letter-spacing="2">REQUESTS 24H</text>
<rect x="176" y="64" width="150" height="64" rx="4" fill="#241e18" stroke="#2e261e" stroke-width="1"/>
<text x="184" y="87" fill="#f0e6d3" font-size="22" font-weight="bold" font-family="JetBrains Mono,monospace">3</text>
<text x="184" y="103" fill="#a0845c" font-size="9" font-family="JetBrains Mono,monospace" letter-spacing="2">ERRORS 24H</text>
<rect x="336" y="64" width="150" height="64" rx="4" fill="#241e18" stroke="#2e261e" stroke-width="1"/>
<text x="344" y="87" fill="#f0e6d3" font-size="22" font-weight="bold" font-family="JetBrains Mono,monospace">12ms</text>
<text x="344" y="103" fill="#a0845c" font-size="9" font-family="JetBrains Mono,monospace" letter-spacing="2">AVG LATENCY</text>
<rect x="496" y="64" width="110" height="64" rx="4" fill="#241e18" stroke="#2e261e" stroke-width="1"/>
<text x="504" y="87" fill="#f0e6d3" font-size="22" font-weight="bold" font-family="JetBrains Mono,monospace">7</text>
<text x="504" y="103" fill="#a0845c" font-size="9" font-family="JetBrains Mono,monospace" letter-spacing="2">ACTIVE KEYS</text>
<rect x="616" y="64" width="88" height="64" rx="4" fill="#241e18" stroke="#2e261e" stroke-width="1"/>
<text x="624" y="87" fill="#f0e6d3" font-size="22" font-weight="bold" font-family="JetBrains Mono,monospace">4</text>
<text x="624" y="103" fill="#a0845c" font-size="9" font-family="JetBrains Mono,monospace" letter-spacing="2">USERS</text>
<!-- Left: API Keys -->
<text x="16" y="154" fill="#e8753a" font-size="9" font-family="JetBrains Mono,monospace" letter-spacing="3">API KEYS</text>
<rect x="16" y="162" width="340" height="26" fill="#2e261e"/>
<text x="24" y="179" fill="#c4a87a" font-size="9" font-family="JetBrains Mono,monospace" letter-spacing="1">PREFIX</text>
<text x="140" y="179" fill="#c4a87a" font-size="9" font-family="JetBrains Mono,monospace" letter-spacing="1">NAME</text>
<text x="240" y="179" fill="#c4a87a" font-size="9" font-family="JetBrains Mono,monospace" letter-spacing="1">ROLE</text>
<text x="290" y="179" fill="#c4a87a" font-size="9" font-family="JetBrains Mono,monospace" letter-spacing="1">LAST USED</text>
<rect x="16" y="188" width="340" height="22" fill="#1e1812"/>
<text x="24" y="203" fill="#c4a87a" font-size="10" font-family="JetBrains Mono,monospace">sk-gate-AbC1...</text>
<text x="140" y="203" fill="#f0e6d3" font-size="10" font-family="JetBrains Mono,monospace">alice</text>
<text x="240" y="203" fill="#bfb5a3" font-size="10" font-family="JetBrains Mono,monospace">user</text>
<text x="290" y="203" fill="#7a7060" font-size="10" font-family="JetBrains Mono,monospace">2s ago</text>
<rect x="16" y="210" width="340" height="22" fill="#1a1410"/>
<text x="24" y="225" fill="#c4a87a" font-size="10" font-family="JetBrains Mono,monospace">sk-gate-Xy2Z...</text>
<text x="140" y="225" fill="#f0e6d3" font-size="10" font-family="JetBrains Mono,monospace">ci-pipeline</text>
<text x="240" y="225" fill="#bfb5a3" font-size="10" font-family="JetBrains Mono,monospace">user</text>
<text x="290" y="225" fill="#7a7060" font-size="10" font-family="JetBrains Mono,monospace">4m ago</text>
<rect x="16" y="232" width="340" height="22" fill="#1e1812"/>
<text x="24" y="247" fill="#c4a87a" font-size="10" font-family="JetBrains Mono,monospace">sk-gate-Mn7P...</text>
<text x="140" y="247" fill="#f0e6d3" font-size="10" font-family="JetBrains Mono,monospace">bob</text>
<text x="240" y="247" fill="#bfb5a3" font-size="10" font-family="JetBrains Mono,monospace">user</text>
<text x="290" y="247" fill="#7a7060" font-size="10" font-family="JetBrains Mono,monospace">1h ago</text>
<!-- Right: Users -->
<text x="370" y="154" fill="#e8753a" font-size="9" font-family="JetBrains Mono,monospace" letter-spacing="3">USERS</text>
<rect x="370" y="162" width="334" height="26" fill="#2e261e"/>
<text x="378" y="179" fill="#c4a87a" font-size="9" font-family="JetBrains Mono,monospace" letter-spacing="1">USERNAME</text>
<text x="510" y="179" fill="#c4a87a" font-size="9" font-family="JetBrains Mono,monospace" letter-spacing="1">ROLE</text>
<text x="570" y="179" fill="#c4a87a" font-size="9" font-family="JetBrains Mono,monospace" letter-spacing="1">CREATED</text>
<rect x="370" y="188" width="334" height="22" fill="#1e1812"/>
<text x="378" y="203" fill="#f0e6d3" font-size="10" font-family="JetBrains Mono,monospace">alice</text>
<text x="510" y="203" fill="#bfb5a3" font-size="10" font-family="JetBrains Mono,monospace">admin</text>
<text x="570" y="203" fill="#7a7060" font-size="10" font-family="JetBrains Mono,monospace">3 days ago</text>
<rect x="370" y="210" width="334" height="22" fill="#1a1410"/>
<text x="378" y="225" fill="#f0e6d3" font-size="10" font-family="JetBrains Mono,monospace">bob</text>
<text x="510" y="225" fill="#bfb5a3" font-size="10" font-family="JetBrains Mono,monospace">user</text>
<text x="570" y="225" fill="#7a7060" font-size="10" font-family="JetBrains Mono,monospace">3 days ago</text>
<rect x="370" y="232" width="334" height="22" fill="#1e1812"/>
<text x="378" y="247" fill="#f0e6d3" font-size="10" font-family="JetBrains Mono,monospace">carol</text>
<text x="510" y="247" fill="#bfb5a3" font-size="10" font-family="JetBrains Mono,monospace">user</text>
<text x="570" y="247" fill="#7a7060" font-size="10" font-family="JetBrains Mono,monospace">1 day ago</text>
<!-- New key banner -->
<rect x="16" y="270" width="688" height="36" rx="3" fill="#1a2a1a" stroke="#5ba86e" stroke-width="1"/>
<text x="28" y="284" fill="#5ba86e" font-size="9" font-family="JetBrains Mono,monospace" letter-spacing="2">NEW KEY ISSUED — SAVE IT, SHOWN ONCE</text>
<text x="28" y="298" fill="#f0e6d3" font-size="10" font-family="JetBrains Mono,monospace">sk-gate-Kq9mAbCdEfGhIjKlMnOpQrStUvWxYz1234567890</text>
<!-- Access log -->
<text x="16" y="330" fill="#e8753a" font-size="9" font-family="JetBrains Mono,monospace" letter-spacing="3">ACCESS LOG</text>
<rect x="16" y="338" width="688" height="26" fill="#2e261e"/>
<text x="24" y="355" fill="#c4a87a" font-size="9" font-family="JetBrains Mono,monospace" letter-spacing="1">METHOD</text>
<text x="90" y="355" fill="#c4a87a" font-size="9" font-family="JetBrains Mono,monospace" letter-spacing="1">PATH</text>
<text x="340" y="355" fill="#c4a87a" font-size="9" font-family="JetBrains Mono,monospace" letter-spacing="1">STATUS</text>
<text x="400" y="355" fill="#c4a87a" font-size="9" font-family="JetBrains Mono,monospace" letter-spacing="1">LATENCY</text>
<text x="480" y="355" fill="#c4a87a" font-size="9" font-family="JetBrains Mono,monospace" letter-spacing="1">KEY</text>
<text x="600" y="355" fill="#c4a87a" font-size="9" font-family="JetBrains Mono,monospace" letter-spacing="1">TIME</text>
<rect x="16" y="364" width="688" height="22" fill="#1e1812"/>
<rect x="24" y="368" width="42" height="14" rx="2" fill="#1a2e1a"/>
<text x="45" y="379" text-anchor="middle" fill="#5ba86e" font-size="9" font-family="JetBrains Mono,monospace">GET</text>
<text x="90" y="379" fill="#bfb5a3" font-size="10" font-family="JetBrains Mono,monospace">/api/data</text>
<rect x="340" y="368" width="28" height="14" rx="2" fill="#1a2e1a"/>
<text x="354" y="379" text-anchor="middle" fill="#5ba86e" font-size="9" font-family="JetBrains Mono,monospace">200</text>
<text x="400" y="379" fill="#bfb5a3" font-size="10" font-family="JetBrains Mono,monospace">9ms</text>
<text x="480" y="379" fill="#c4a87a" font-size="10" font-family="JetBrains Mono,monospace">sk-gate-AbC1...</text>
<text x="600" y="379" fill="#7a7060" font-size="10" font-family="JetBrains Mono,monospace">2s ago</text>
<rect x="16" y="386" width="688" height="22" fill="#1a1410"/>
<rect x="24" y="390" width="42" height="14" rx="2" fill="#1a2e1a"/>
<text x="45" y="401" text-anchor="middle" fill="#5ba86e" font-size="9" font-family="JetBrains Mono,monospace">POST</text>
<text x="90" y="401" fill="#bfb5a3" font-size="10" font-family="JetBrains Mono,monospace">/api/process</text>
<rect x="340" y="390" width="28" height="14" rx="2" fill="#1a2e1a"/>
<text x="354" y="401" text-anchor="middle" fill="#5ba86e" font-size="9" font-family="JetBrains Mono,monospace">201</text>
<text x="400" y="401" fill="#bfb5a3" font-size="10" font-family="JetBrains Mono,monospace">24ms</text>
<text x="480" y="401" fill="#c4a87a" font-size="10" font-family="JetBrains Mono,monospace">sk-gate-Xy2Z...</text>
<text x="600" y="401" fill="#7a7060" font-size="10" font-family="JetBrains Mono,monospace">18s ago</text>
<rect x="16" y="408" width="688" height="22" fill="#1e1812"/>
<rect x="24" y="412" width="42" height="14" rx="2" fill="#2a1a1a"/>
<text x="45" y="423" text-anchor="middle" fill="#c0392b" font-size="9" font-family="JetBrains Mono,monospace">GET</text>
<text x="90" y="423" fill="#bfb5a3" font-size="10" font-family="JetBrains Mono,monospace">/api/data</text>
<rect x="340" y="412" width="28" height="14" rx="2" fill="#2a1a1a"/>
<text x="354" y="423" text-anchor="middle" fill="#c0392b" font-size="9" font-family="JetBrains Mono,monospace">401</text>
<text x="400" y="423" fill="#bfb5a3" font-size="10" font-family="JetBrains Mono,monospace">1ms</text>
<text x="480" y="423" fill="#7a7060" font-size="10" font-family="JetBrains Mono,monospace">no key</text>
<text x="600" y="423" fill="#7a7060" font-size="10" font-family="JetBrains Mono,monospace">32s ago</text>
<rect x="16" y="430" width="688" height="22" fill="#1a1410"/>
<rect x="24" y="434" width="42" height="14" rx="2" fill="#1a2e1a"/>
<text x="45" y="445" text-anchor="middle" fill="#5ba86e" font-size="9" font-family="JetBrains Mono,monospace">GET</text>
<text x="90" y="445" fill="#bfb5a3" font-size="10" font-family="JetBrains Mono,monospace">/api/config</text>
<rect x="340" y="434" width="28" height="14" rx="2" fill="#1a2e1a"/>
<text x="354" y="445" text-anchor="middle" fill="#5ba86e" font-size="9" font-family="JetBrains Mono,monospace">200</text>
<text x="400" y="445" fill="#bfb5a3" font-size="10" font-family="JetBrains Mono,monospace">7ms</text>
<text x="480" y="445" fill="#c4a87a" font-size="10" font-family="JetBrains Mono,monospace">sk-gate-Mn7P...</text>
<text x="600" y="445" fill="#7a7060" font-size="10" font-family="JetBrains Mono,monospace">1m ago</text>
<rect x="16" y="452" width="688" height="22" fill="#1e1812"/>
<rect x="24" y="456" width="42" height="14" rx="2" fill="#1a2e1a"/>
<text x="45" y="467" text-anchor="middle" fill="#5ba86e" font-size="9" font-family="JetBrains Mono,monospace">POST</text>
<text x="90" y="467" fill="#bfb5a3" font-size="10" font-family="JetBrains Mono,monospace">/api/data</text>
<rect x="340" y="456" width="28" height="14" rx="2" fill="#1a2e1a"/>
<text x="354" y="467" text-anchor="middle" fill="#5ba86e" font-size="9" font-family="JetBrains Mono,monospace">200</text>
<text x="400" y="467" fill="#bfb5a3" font-size="10" font-family="JetBrains Mono,monospace">18ms</text>
<text x="480" y="467" fill="#c4a87a" font-size="10" font-family="JetBrains Mono,monospace">sk-gate-AbC1...</text>
<text x="600" y="467" fill="#7a7060" font-size="10" font-family="JetBrains Mono,monospace">2m ago</text>
</svg>