<svg xmlns="http://www.w3.org/2000/svg" width="720" height="480" viewBox="0 0 720 480" role="img" aria-label="Sundial dashboard mockup">
<rect width="720" height="480" rx="8" fill="#1a1410"/>
<rect width="720" height="48" fill="#241e18"/>
<rect y="46" width="720" height="2" fill="#2e261e"/>
<circle cx="18" cy="24" r="5" fill="#c0392b"/>
<circle cx="36" cy="24" r="5" fill="#d4a843"/>
<circle cx="54" cy="24" r="5" fill="#5ba86e"/>
<rect x="72" y="12" width="6" height="24" rx="1.5" fill="#e8753a"/>
<rect x="83" y="12" width="6" height="24" rx="1.5" fill="#e8753a"/>
<rect x="94" y="12" width="6" height="24" rx="1.5" fill="#e8753a"/>
<rect x="72" y="21" width="28" height="6" rx="1.5" fill="#c4a87a"/>
<text x="112" y="28" fill="#c4a87a" font-size="11" font-family="JetBrains Mono,monospace" letter-spacing="2">STOCKYARD · SUNDIAL</text>
<rect x="624" y="15" width="78" height="18" rx="3" fill="none" stroke="#5ba86e" stroke-width="1"/>
<text x="663" y="27" text-anchor="middle" fill="#5ba86e" font-size="9" font-family="JetBrains Mono,monospace" letter-spacing="1">RUNNING</text>
<text x="16" y="74" fill="#c45d2c" font-size="10" font-family="JetBrains Mono,monospace" letter-spacing="3">WEEK OF SEPT 22</text>
<rect x="540" y="60" width="48" height="22" rx="3" fill="#241e18" stroke="#2e261e"/>
<text x="564" y="75" text-anchor="middle" fill="#a0845c" font-size="9" font-family="JetBrains Mono,monospace">DAY</text>
<rect x="592" y="60" width="48" height="22" rx="3" fill="#c45d2c" stroke="#c45d2c"/>
<text x="616" y="75" text-anchor="middle" fill="#f0e6d3" font-size="9" font-family="JetBrains Mono,monospace">WEEK</text>
<rect x="644" y="60" width="58" height="22" rx="3" fill="#241e18" stroke="#2e261e"/>
<text x="673" y="75" text-anchor="middle" fill="#a0845c" font-size="9" font-family="JetBrains Mono,monospace">MONTH</text>
<text x="66.0" y="114" text-anchor="middle" fill="#a0845c" font-size="9" font-family="JetBrains Mono,monospace" letter-spacing="2">MON</text>
<text x="66.0" y="130" text-anchor="middle" fill="#f0e6d3" font-size="14" font-family="JetBrains Mono,monospace" font-weight="normal">22</text>
<text x="166.0" y="114" text-anchor="middle" fill="#a0845c" font-size="9" font-family="JetBrains Mono,monospace" letter-spacing="2">TUE</text>
<text x="166.0" y="130" text-anchor="middle" fill="#e8753a" font-size="14" font-family="JetBrains Mono,monospace" font-weight="bold">23</text>
<text x="266.0" y="114" text-anchor="middle" fill="#a0845c" font-size="9" font-family="JetBrains Mono,monospace" letter-spacing="2">WED</text>
<text x="266.0" y="130" text-anchor="middle" fill="#f0e6d3" font-size="14" font-family="JetBrains Mono,monospace" font-weight="normal">24</text>
<text x="366.0" y="114" text-anchor="middle" fill="#a0845c" font-size="9" font-family="JetBrains Mono,monospace" letter-spacing="2">THU</text>
<text x="366.0" y="130" text-anchor="middle" fill="#f0e6d3" font-size="14" font-family="JetBrains Mono,monospace" font-weight="normal">25</text>
<text x="466.0" y="114" text-anchor="middle" fill="#a0845c" font-size="9" font-family="JetBrains Mono,monospace" letter-spacing="2">FRI</text>
<text x="466.0" y="130" text-anchor="middle" fill="#f0e6d3" font-size="14" font-family="JetBrains Mono,monospace" font-weight="normal">26</text>
<text x="566.0" y="114" text-anchor="middle" fill="#a0845c" font-size="9" font-family="JetBrains Mono,monospace" letter-spacing="2">SAT</text>
<text x="566.0" y="130" text-anchor="middle" fill="#f0e6d3" font-size="14" font-family="JetBrains Mono,monospace" font-weight="normal">27</text>
<text x="666.0" y="114" text-anchor="middle" fill="#a0845c" font-size="9" font-family="JetBrains Mono,monospace" letter-spacing="2">SUN</text>
<text x="666.0" y="130" text-anchor="middle" fill="#f0e6d3" font-size="14" font-family="JetBrains Mono,monospace" font-weight="normal">28</text>
<line x1="16" y1="138" x2="716" y2="138" stroke="#2e261e" stroke-width="1"/>
<line x1="16" y1="138" x2="16" y2="418" stroke="#2e261e" stroke-width="1"/>
<line x1="116" y1="138" x2="116" y2="418" stroke="#2e261e" stroke-width="1"/>
<line x1="216" y1="138" x2="216" y2="418" stroke="#2e261e" stroke-width="1"/>
<line x1="316" y1="138" x2="316" y2="418" stroke="#2e261e" stroke-width="1"/>
<line x1="416" y1="138" x2="416" y2="418" stroke="#2e261e" stroke-width="1"/>
<line x1="516" y1="138" x2="516" y2="418" stroke="#2e261e" stroke-width="1"/>
<line x1="616" y1="138" x2="616" y2="418" stroke="#2e261e" stroke-width="1"/>
<line x1="716" y1="138" x2="716" y2="418" stroke="#2e261e" stroke-width="1"/>
<line x1="16" y1="138" x2="716" y2="138" stroke="#2e261e" stroke-width="0.5"/>
<line x1="16" y1="194" x2="716" y2="194" stroke="#2e261e" stroke-width="0.5"/>
<line x1="16" y1="250" x2="716" y2="250" stroke="#2e261e" stroke-width="0.5"/>
<line x1="16" y1="306" x2="716" y2="306" stroke="#2e261e" stroke-width="0.5"/>
<line x1="16" y1="362" x2="716" y2="362" stroke="#2e261e" stroke-width="0.5"/>
<line x1="16" y1="418" x2="716" y2="418" stroke="#2e261e" stroke-width="0.5"/>
<text x="14" y="152" text-anchor="end" fill="#a0845c" font-size="8" font-family="JetBrains Mono,monospace">9 AM</text>
<text x="14" y="208" text-anchor="end" fill="#a0845c" font-size="8" font-family="JetBrains Mono,monospace">11 AM</text>
<text x="14" y="264" text-anchor="end" fill="#a0845c" font-size="8" font-family="JetBrains Mono,monospace">1 PM</text>
<text x="14" y="320" text-anchor="end" fill="#a0845c" font-size="8" font-family="JetBrains Mono,monospace">3 PM</text>
<text x="14" y="376" text-anchor="end" fill="#a0845c" font-size="8" font-family="JetBrains Mono,monospace">5 PM</text>
<rect x="420" y="142" width="92" height="48" rx="2" fill="#c45d2c" opacity="0.85"/>
<rect x="420" y="142" width="3" height="48" fill="#f0e6d3"/>
<text x="428" y="156" fill="#f0e6d3" font-size="8" font-family="JetBrains Mono,monospace" font-weight="bold">Touch-up sessi</text>
<text x="428" y="170" fill="#f0e6d3" font-size="8" font-family="JetBrains Mono,monospace" opacity="0.85">9:00</text>
<rect x="620" y="366" width="92" height="48" rx="2" fill="#e8753a" opacity="0.85"/>
<rect x="620" y="366" width="3" height="48" fill="#f0e6d3"/>
<text x="628" y="380" fill="#f0e6d3" font-size="8" font-family="JetBrains Mono,monospace" font-weight="bold">Follow-up</text>
<text x="628" y="394" fill="#f0e6d3" font-size="8" font-family="JetBrains Mono,monospace" opacity="0.85">10:30</text>
<rect x="20" y="142" width="92" height="48" rx="2" fill="#d4a843" opacity="0.85"/>
<rect x="20" y="142" width="3" height="48" fill="#f0e6d3"/>
<text x="28" y="156" fill="#f0e6d3" font-size="8" font-family="JetBrains Mono,monospace" font-weight="bold">Cleaning</text>
<text x="28" y="170" fill="#f0e6d3" font-size="8" font-family="JetBrains Mono,monospace" opacity="0.85">1:00</text>
<rect x="420" y="198" width="92" height="48" rx="2" fill="#c45d2c" opacity="0.85"/>
<rect x="420" y="198" width="3" height="48" fill="#f0e6d3"/>
<text x="428" y="212" fill="#f0e6d3" font-size="8" font-family="JetBrains Mono,monospace" font-weight="bold">Discovery</text>
<text x="428" y="226" fill="#f0e6d3" font-size="8" font-family="JetBrains Mono,monospace" opacity="0.85">2:30</text>
<rect x="120" y="142" width="92" height="48" rx="2" fill="#e8753a" opacity="0.85"/>
<rect x="120" y="142" width="3" height="48" fill="#f0e6d3"/>
<text x="128" y="156" fill="#f0e6d3" font-size="8" font-family="JetBrains Mono,monospace" font-weight="bold">Follow-up</text>
<text x="128" y="170" fill="#f0e6d3" font-size="8" font-family="JetBrains Mono,monospace" opacity="0.85">4:00</text>
<rect x="20" y="254" width="92" height="48" rx="2" fill="#d4a843" opacity="0.85"/>
<rect x="20" y="254" width="3" height="48" fill="#f0e6d3"/>
<text x="28" y="268" fill="#f0e6d3" font-size="8" font-family="JetBrains Mono,monospace" font-weight="bold">Intake</text>
<text x="28" y="282" fill="#f0e6d3" font-size="8" font-family="JetBrains Mono,monospace" opacity="0.85">11:00</text>
</svg>