<svg xmlns="http://www.w3.org/2000/svg" width="720" height="480" viewBox="0 0 720 480" role="img" aria-label="Trough dashboard showing API spend summary">
<rect width="720" height="480" rx="8" fill="#1a1410"/>
<rect width="720" height="48" rx="8" fill="#241e18"/>
<rect y="46" width="720" height="2" fill="#2e261e"/>
<circle cx="18" cy="24" r="5" fill="#c0392b"/>
<circle cx="36" cy="24" r="5" fill="#d4a843"/>
<circle cx="54" cy="24" r="5" fill="#5ba86e"/>
<rect x="72" y="12" width="8" height="24" rx="2" fill="#e8753a"/>
<rect x="85" y="12" width="8" height="24" rx="2" fill="#e8753a"/>
<rect x="98" y="12" width="8" height="24" rx="2" fill="#e8753a"/>
<rect x="72" y="21" width="34" height="6" rx="2" fill="#c4a87a"/>
<text x="116" y="28" fill="#c4a87a" font-size="11" font-family="JetBrains Mono,monospace" letter-spacing="2">STOCKYARD · TROUGH</text>
<rect x="630" y="15" width="72" height="18" rx="3" fill="none" stroke="#5ba86e" stroke-width="1"/>
<text x="666" y="27" text-anchor="middle" fill="#5ba86e" font-size="9" font-family="JetBrains Mono,monospace" letter-spacing="1">PRO</text>
<!-- Stat cards -->
<rect x="16" y="64" width="160" height="64" rx="4" fill="#241e18" stroke="#2e261e" stroke-width="1"/>
<text x="24" y="84" fill="#f0e6d3" font-size="20" font-weight="bold" font-family="JetBrains Mono,monospace">9,071</text>
<text x="24" y="100" fill="#a0845c" font-size="9" font-family="JetBrains Mono,monospace" letter-spacing="2">TOTAL REQUESTS</text>
<rect x="186" y="64" width="160" height="64" rx="4" fill="#241e18" stroke="#2e261e" stroke-width="1"/>
<text x="194" y="84" fill="#f0e6d3" font-size="20" font-weight="bold" font-family="JetBrains Mono,monospace">247</text>
<text x="194" y="100" fill="#a0845c" font-size="9" font-family="JetBrains Mono,monospace" letter-spacing="2">REQUESTS TODAY</text>
<rect x="356" y="64" width="160" height="64" rx="4" fill="#241e18" stroke="#2e261e" stroke-width="1"/>
<text x="364" y="84" fill="#d4a843" font-size="20" font-weight="bold" font-family="JetBrains Mono,monospace">$112.43</text>
<text x="364" y="100" fill="#a0845c" font-size="9" font-family="JetBrains Mono,monospace" letter-spacing="2">TOTAL COST</text>
<rect x="526" y="64" width="178" height="64" rx="4" fill="#241e18" stroke="#2e261e" stroke-width="1"/>
<text x="534" y="84" fill="#d4a843" font-size="20" font-weight="bold" font-family="JetBrains Mono,monospace">$4.94</text>
<text x="534" y="100" fill="#a0845c" font-size="9" font-family="JetBrains Mono,monospace" letter-spacing="2">COST TODAY</text>
<!-- By Day -->
<text x="16" y="154" fill="#e8753a" font-size="9" font-family="JetBrains Mono,monospace" letter-spacing="3">SPEND BY DAY</text>
<rect x="16" y="162" width="330" height="28" fill="#2e261e"/>
<text x="24" y="181" fill="#c4a87a" font-size="9" font-family="JetBrains Mono,monospace" letter-spacing="1">DATE</text>
<text x="140" y="181" fill="#c4a87a" font-size="9" font-family="JetBrains Mono,monospace" letter-spacing="1">REQUESTS</text>
<text x="240" y="181" fill="#c4a87a" font-size="9" font-family="JetBrains Mono,monospace" letter-spacing="1">COST</text>
<rect x="16" y="190" width="330" height="22" fill="#1e1812"/>
<text x="24" y="205" fill="#f0e6d3" font-size="10" font-family="JetBrains Mono,monospace">2026-03-31</text>
<text x="140" y="205" fill="#bfb5a3" font-size="10" font-family="JetBrains Mono,monospace">247</text>
<text x="240" y="205" fill="#d4a843" font-size="10" font-family="JetBrains Mono,monospace">$4.94</text>
<rect x="16" y="212" width="330" height="22" fill="#1a1410"/>
<text x="24" y="227" fill="#f0e6d3" font-size="10" font-family="JetBrains Mono,monospace">2026-03-30</text>
<text x="140" y="227" fill="#bfb5a3" font-size="10" font-family="JetBrains Mono,monospace">831</text>
<text x="240" y="227" fill="#d4a843" font-size="10" font-family="JetBrains Mono,monospace">$16.62</text>
<rect x="16" y="234" width="330" height="22" fill="#1e1812"/>
<text x="24" y="249" fill="#f0e6d3" font-size="10" font-family="JetBrains Mono,monospace">2026-03-29</text>
<text x="140" y="249" fill="#bfb5a3" font-size="10" font-family="JetBrains Mono,monospace">1,204</text>
<text x="240" y="249" fill="#d4a843" font-size="10" font-family="JetBrains Mono,monospace">$24.08</text>
<rect x="16" y="256" width="330" height="22" fill="#1a1410"/>
<text x="24" y="271" fill="#f0e6d3" font-size="10" font-family="JetBrains Mono,monospace">2026-03-28</text>
<text x="140" y="271" fill="#bfb5a3" font-size="10" font-family="JetBrains Mono,monospace">986</text>
<text x="240" y="271" fill="#d4a843" font-size="10" font-family="JetBrains Mono,monospace">$19.72</text>
<!-- By Endpoint -->
<text x="360" y="154" fill="#e8753a" font-size="9" font-family="JetBrains Mono,monospace" letter-spacing="3">BY ENDPOINT</text>
<rect x="360" y="162" width="344" height="28" fill="#2e261e"/>
<text x="368" y="181" fill="#c4a87a" font-size="9" font-family="JetBrains Mono,monospace" letter-spacing="1">PATH</text>
<text x="570" y="181" fill="#c4a87a" font-size="9" font-family="JetBrains Mono,monospace" letter-spacing="1">REQS</text>
<text x="630" y="181" fill="#c4a87a" font-size="9" font-family="JetBrains Mono,monospace" letter-spacing="1">COST</text>
<rect x="360" y="190" width="344" height="22" fill="#1e1812"/>
<text x="368" y="205" fill="#e8753a" font-size="10" font-family="JetBrains Mono,monospace">/v3/mail/send</text>
<text x="570" y="205" fill="#bfb5a3" font-size="10" font-family="JetBrains Mono,monospace">8,420</text>
<text x="630" y="205" fill="#d4a843" font-size="10" font-family="JetBrains Mono,monospace">$84.20</text>
<rect x="360" y="212" width="344" height="22" fill="#1a1410"/>
<text x="368" y="227" fill="#bfb5a3" font-size="10" font-family="JetBrains Mono,monospace">/2010-04-01/Messages</text>
<text x="570" y="227" fill="#bfb5a3" font-size="10" font-family="JetBrains Mono,monospace">312</text>
<text x="630" y="227" fill="#d4a843" font-size="10" font-family="JetBrains Mono,monospace">$24.65</text>
<rect x="360" y="234" width="344" height="22" fill="#1e1812"/>
<text x="368" y="249" fill="#bfb5a3" font-size="10" font-family="JetBrains Mono,monospace">/v1/chat/completions</text>
<text x="570" y="249" fill="#bfb5a3" font-size="10" font-family="JetBrains Mono,monospace">247</text>
<text x="630" y="249" fill="#d4a843" font-size="10" font-family="JetBrains Mono,monospace">$4.94</text>
<rect x="360" y="256" width="344" height="22" fill="#1a1410"/>
<text x="368" y="271" fill="#7a7060" font-size="10" font-family="JetBrains Mono,monospace">/v3/stats</text>
<text x="570" y="271" fill="#7a7060" font-size="10" font-family="JetBrains Mono,monospace">144</text>
<text x="630" y="271" fill="#7a7060" font-size="10" font-family="JetBrains Mono,monospace">$0.00</text>
<!-- Anomaly alert (Pro feature) -->
<rect x="16" y="300" width="688" height="56" rx="4" fill="#1a1f1a" stroke="#5ba86e" stroke-width="1"/>
<text x="28" y="320" fill="#5ba86e" font-size="9" font-family="JetBrains Mono,monospace" letter-spacing="2">ANOMALY DETECTED — PRO</text>
<text x="28" y="338" fill="#d4a843" font-size="11" font-family="JetBrains Mono,monospace">⚠  /v3/mail/send spend is 2.4x the 7-day average — $84.20 today vs $34.70 avg</text>
<text x="28" y="352" fill="#a0845c" font-size="10" font-family="JetBrains Mono,monospace">Alert webhook fired: POST https://hooks.slack.com/...</text>
<!-- Recent requests -->
<text x="16" y="384" fill="#e8753a" font-size="9" font-family="JetBrains Mono,monospace" letter-spacing="3">RECENT REQUESTS</text>
<rect x="16" y="392" width="688" height="22" fill="#1e1812"/>
<text x="24" y="407" fill="#7a7060" font-size="10" font-family="JetBrains Mono,monospace">sendgrid</text>
<rect x="88" y="396" width="36" height="14" rx="2" fill="#1a2e1a"/>
<text x="106" y="407" text-anchor="middle" fill="#5ba86e" font-size="9" font-family="JetBrains Mono,monospace">POST</text>
<text x="138" y="407" fill="#bfb5a3" font-size="10" font-family="JetBrains Mono,monospace">/v3/mail/send</text>
<rect x="346" y="396" width="28" height="14" rx="2" fill="#1a2e1a"/>
<text x="360" y="407" text-anchor="middle" fill="#5ba86e" font-size="9" font-family="JetBrains Mono,monospace">200</text>
<text x="390" y="407" fill="#bfb5a3" font-size="10" font-family="JetBrains Mono,monospace">341ms</text>
<text x="460" y="407" fill="#d4a843" font-size="10" font-family="JetBrains Mono,monospace">$0.01</text>
<text x="530" y="407" fill="#7a7060" font-size="10" font-family="JetBrains Mono,monospace">2s ago</text>
<rect x="16" y="414" width="688" height="22" fill="#1a1410"/>
<text x="24" y="429" fill="#7a7060" font-size="10" font-family="JetBrains Mono,monospace">openai</text>
<rect x="88" y="418" width="36" height="14" rx="2" fill="#1a2e1a"/>
<text x="106" y="429" text-anchor="middle" fill="#5ba86e" font-size="9" font-family="JetBrains Mono,monospace">POST</text>
<text x="138" y="429" fill="#bfb5a3" font-size="10" font-family="JetBrains Mono,monospace">/v1/chat/completions</text>
<rect x="346" y="418" width="28" height="14" rx="2" fill="#1a2e1a"/>
<text x="360" y="429" text-anchor="middle" fill="#5ba86e" font-size="9" font-family="JetBrains Mono,monospace">200</text>
<text x="390" y="429" fill="#bfb5a3" font-size="10" font-family="JetBrains Mono,monospace">892ms</text>
<text x="460" y="429" fill="#d4a843" font-size="10" font-family="JetBrains Mono,monospace">$0.02</text>
<text x="530" y="429" fill="#7a7060" font-size="10" font-family="JetBrains Mono,monospace">8s ago</text>
<rect x="16" y="436" width="688" height="22" fill="#1e1812"/>
<text x="24" y="451" fill="#7a7060" font-size="10" font-family="JetBrains Mono,monospace">sendgrid</text>
<rect x="88" y="440" width="36" height="14" rx="2" fill="#1a2e1a"/>
<text x="106" y="451" text-anchor="middle" fill="#5ba86e" font-size="9" font-family="JetBrains Mono,monospace">POST</text>
<text x="138" y="451" fill="#bfb5a3" font-size="10" font-family="JetBrains Mono,monospace">/v3/mail/send</text>
<rect x="346" y="440" width="28" height="14" rx="2" fill="#1a2e1a"/>
<text x="360" y="451" text-anchor="middle" fill="#5ba86e" font-size="9" font-family="JetBrains Mono,monospace">200</text>
<text x="390" y="451" fill="#bfb5a3" font-size="10" font-family="JetBrains Mono,monospace">287ms</text>
<text x="460" y="451" fill="#d4a843" font-size="10" font-family="JetBrains Mono,monospace">$0.01</text>
<text x="530" y="451" fill="#7a7060" font-size="10" font-family="JetBrains Mono,monospace">14s ago</text>
</svg>