<svg xmlns="http://www.w3.org/2000/svg" width="720" height="480" viewBox="0 0 720 480" role="img" aria-label="Branding Iron dashboard mockup">
<rect width="720" height="480" rx="8" fill="#1a1410"/>
<rect width="720" height="48" fill="#241e18"/>
<rect y="46" width="720" height="2" fill="#2e261e"/>
<circle cx="18" cy="24" r="5" fill="#c0392b"/>
<circle cx="36" cy="24" r="5" fill="#d4a843"/>
<circle cx="54" cy="24" r="5" fill="#5ba86e"/>
<rect x="72" y="12" width="6" height="24" rx="1.5" fill="#e8753a"/>
<rect x="83" y="12" width="6" height="24" rx="1.5" fill="#e8753a"/>
<rect x="94" y="12" width="6" height="24" rx="1.5" fill="#e8753a"/>
<rect x="72" y="21" width="28" height="6" rx="1.5" fill="#c4a87a"/>
<text x="112" y="28" fill="#c4a87a" font-size="11" font-family="JetBrains Mono,monospace" letter-spacing="2">STOCKYARD · BRANDING IRON</text>
<rect x="624" y="15" width="78" height="18" rx="3" fill="none" stroke="#5ba86e" stroke-width="1"/>
<text x="663" y="27" text-anchor="middle" fill="#5ba86e" font-size="9" font-family="JetBrains Mono,monospace" letter-spacing="1">RUNNING</text>
<text x="16" y="74" fill="#c45d2c" font-size="10" font-family="JetBrains Mono,monospace" letter-spacing="3">EDITING · DRAFT</text>
<rect x="540" y="60" width="78" height="22" rx="3" fill="#241e18" stroke="#2e261e"/>
<text x="579" y="75" text-anchor="middle" fill="#a0845c" font-size="9" font-family="JetBrains Mono,monospace">PREVIEW</text>
<rect x="624" y="60" width="80" height="22" rx="3" fill="#c45d2c"/>
<text x="664" y="75" text-anchor="middle" fill="#f0e6d3" font-size="9" font-family="JetBrains Mono,monospace">PUBLISH</text>
<rect x="16" y="92" width="688" height="372" rx="6" fill="#241e18" stroke="#2e261e"/>
<text x="32" y="130" fill="#f0e6d3" font-size="22" font-family="Libre Baskerville,Georgia,serif" font-weight="bold">v2.1.4 release notes</text>
<text x="32" y="152" fill="#a0845c" font-size="10" font-family="JetBrains Mono,monospace">draft · ready for review</text>
<line x1="32" y1="170" x2="688" y2="170" stroke="#2e261e" stroke-width="1"/>
<text x="32" y="204" fill="#f0e6d3" font-size="14" font-family="Libre Baskerville,Georgia,serif" font-weight="bold">New</text>
<circle cx="40" cy="226" r="2.5" fill="#e8753a"/>
<text x="50" y="230" fill="#bfb5a3" font-size="11" font-family="Libre Baskerville,Georgia,serif">Bulk import for contacts (CSV up to 50k rows)</text>
<circle cx="40" cy="244" r="2.5" fill="#e8753a"/>
<text x="50" y="248" fill="#bfb5a3" font-size="11" font-family="Libre Baskerville,Georgia,serif">Two-factor auth via TOTP</text>
<circle cx="40" cy="262" r="2.5" fill="#e8753a"/>
<text x="50" y="266" fill="#bfb5a3" font-size="11" font-family="Libre Baskerville,Georgia,serif">Slack notifications on bundle install</text>
<text x="32" y="292" fill="#f0e6d3" font-size="14" font-family="Libre Baskerville,Georgia,serif" font-weight="bold">Fixed</text>
<circle cx="40" cy="314" r="2.5" fill="#e8753a"/>
<text x="50" y="318" fill="#bfb5a3" font-size="11" font-family="Libre Baskerville,Georgia,serif">Login form rejected valid emails with + aliases</text>
<circle cx="40" cy="332" r="2.5" fill="#e8753a"/>
<text x="50" y="336" fill="#bfb5a3" font-size="11" font-family="Libre Baskerville,Georgia,serif">Pagination broke at page 100+</text>
<circle cx="40" cy="350" r="2.5" fill="#e8753a"/>
<text x="50" y="354" fill="#bfb5a3" font-size="11" font-family="Libre Baskerville,Georgia,serif">Dark mode flickered on first paint in Safari</text>
<text x="32" y="448" fill="#a0845c" font-size="9" font-family="JetBrains Mono,monospace" letter-spacing="2">TAGS</text>
<rect x="80" y="436" width="63" height="18" rx="2" fill="none" stroke="#a0845c"/>
<text x="111.5" y="449" text-anchor="middle" fill="#c4a87a" font-size="9" font-family="JetBrains Mono,monospace">release</text>
<rect x="149" y="436" width="77" height="18" rx="2" fill="none" stroke="#a0845c"/>
<text x="187.5" y="449" text-anchor="middle" fill="#c4a87a" font-size="9" font-family="JetBrains Mono,monospace">changelog</text>
<rect x="232" y="436" width="56" height="18" rx="2" fill="none" stroke="#a0845c"/>
<text x="260.0" y="449" text-anchor="middle" fill="#c4a87a" font-size="9" font-family="JetBrains Mono,monospace">v2.1.4</text>
</svg>