<svg xmlns="http://www.w3.org/2000/svg" width="720" height="480" viewBox="0 0 720 480" role="img" aria-label="Seismograph dashboard mockup">
<rect width="720" height="480" rx="8" fill="#1a1410"/>
<rect width="720" height="48" fill="#241e18"/>
<rect y="46" width="720" height="2" fill="#2e261e"/>
<circle cx="18" cy="24" r="5" fill="#c0392b"/>
<circle cx="36" cy="24" r="5" fill="#d4a843"/>
<circle cx="54" cy="24" r="5" fill="#5ba86e"/>
<rect x="72" y="12" width="6" height="24" rx="1.5" fill="#e8753a"/>
<rect x="83" y="12" width="6" height="24" rx="1.5" fill="#e8753a"/>
<rect x="94" y="12" width="6" height="24" rx="1.5" fill="#e8753a"/>
<rect x="72" y="21" width="28" height="6" rx="1.5" fill="#c4a87a"/>
<text x="112" y="28" fill="#c4a87a" font-size="11" font-family="JetBrains Mono,monospace" letter-spacing="2">STOCKYARD · SEISMOGRAPH</text>
<rect x="624" y="15" width="78" height="18" rx="3" fill="none" stroke="#5ba86e" stroke-width="1"/>
<text x="663" y="27" text-anchor="middle" fill="#5ba86e" font-size="9" font-family="JetBrains Mono,monospace" letter-spacing="1">RUNNING</text>
<rect x="16" y="64" width="688" height="400" rx="6" fill="#0d0a08" stroke="#2e261e" stroke-width="1"/>
<rect x="16" y="64" width="688" height="22" rx="6" fill="#241e18"/>
<rect x="16" y="80" width="688" height="8" fill="#241e18"/>
<text x="360.0" y="79" text-anchor="middle" fill="#a0845c" font-size="9" font-family="JetBrains Mono,monospace">~/seismograph</text>
<text x="32" y="110" fill="#5ba86e" font-size="11" font-family="JetBrains Mono,monospace">$ seismograph --help</text>
<text x="32" y="127" fill="#bfb5a3" font-size="11" font-family="JetBrains Mono,monospace">Seismograph v1.4.2 — self-hosted, single binary</text>
<text x="32" y="144" fill="#7a7060" font-size="11" font-family="JetBrains Mono,monospace"></text>
<text x="32" y="161" fill="#5ba86e" font-size="11" font-family="JetBrains Mono,monospace">$ ./seismograph</text>
<text x="32" y="178" fill="#f0e6d3" font-size="11" font-family="JetBrains Mono,monospace">seismograph: 14 errors in last hour</text>
<text x="32" y="195" fill="#f0e6d3" font-size="11" font-family="JetBrains Mono,monospace"></text>
<text x="32" y="212" fill="#c0392b" font-size="11" font-family="JetBrains Mono,monospace">[ERROR] NullPointerException in OrderHandler.process()</text>
<text x="32" y="229" fill="#bfb5a3" font-size="11" font-family="JetBrains Mono,monospace">        first seen: 14:02   count: 8   users: 6</text>
<text x="32" y="246" fill="#c0392b" font-size="11" font-family="JetBrains Mono,monospace">[ERROR] connection refused: redis://prod:6379</text>
<text x="32" y="263" fill="#bfb5a3" font-size="11" font-family="JetBrains Mono,monospace">        first seen: 13:48   count: 4   users: 412</text>
<text x="32" y="280" fill="#d4a843" font-size="11" font-family="JetBrains Mono,monospace">[WARN]  slow query: SELECT * FROM orders ...</text>
<text x="32" y="297" fill="#5ba86e" font-size="11" font-family="JetBrains Mono,monospace">$ <tspan fill="#f0e6d3">_</tspan></text>
</svg>