<svg xmlns="http://www.w3.org/2000/svg" width="720" height="480" viewBox="0 0 720 480" role="img" aria-label="Trailhead dashboard mockup">
<rect width="720" height="480" rx="8" fill="#1a1410"/>
<rect width="720" height="48" fill="#241e18"/>
<rect y="46" width="720" height="2" fill="#2e261e"/>
<circle cx="18" cy="24" r="5" fill="#c0392b"/>
<circle cx="36" cy="24" r="5" fill="#d4a843"/>
<circle cx="54" cy="24" r="5" fill="#5ba86e"/>
<rect x="72" y="12" width="6" height="24" rx="1.5" fill="#e8753a"/>
<rect x="83" y="12" width="6" height="24" rx="1.5" fill="#e8753a"/>
<rect x="94" y="12" width="6" height="24" rx="1.5" fill="#e8753a"/>
<rect x="72" y="21" width="28" height="6" rx="1.5" fill="#c4a87a"/>
<text x="112" y="28" fill="#c4a87a" font-size="11" font-family="JetBrains Mono,monospace" letter-spacing="2">STOCKYARD · TRAILHEAD</text>
<rect x="624" y="15" width="78" height="18" rx="3" fill="none" stroke="#5ba86e" stroke-width="1"/>
<text x="663" y="27" text-anchor="middle" fill="#5ba86e" font-size="9" font-family="JetBrains Mono,monospace" letter-spacing="1">RUNNING</text>
<text x="16" y="74" fill="#c45d2c" font-size="10" font-family="JetBrains Mono,monospace" letter-spacing="3">EDITING · DRAFT</text>
<rect x="540" y="60" width="78" height="22" rx="3" fill="#241e18" stroke="#2e261e"/>
<text x="579" y="75" text-anchor="middle" fill="#a0845c" font-size="9" font-family="JetBrains Mono,monospace">PREVIEW</text>
<rect x="624" y="60" width="80" height="22" rx="3" fill="#c45d2c"/>
<text x="664" y="75" text-anchor="middle" fill="#f0e6d3" font-size="9" font-family="JetBrains Mono,monospace">PUBLISH</text>
<rect x="16" y="92" width="688" height="372" rx="6" fill="#241e18" stroke="#2e261e"/>
<text x="32" y="130" fill="#f0e6d3" font-size="22" font-family="Libre Baskerville,Georgia,serif" font-weight="bold">Daily goals — Sept 28</text>
<text x="32" y="152" fill="#a0845c" font-size="10" font-family="JetBrains Mono,monospace">private · 4 of 6 done</text>
<line x1="32" y1="170" x2="688" y2="170" stroke="#2e261e" stroke-width="1"/>
<circle cx="40" cy="200" r="2.5" fill="#e8753a"/>
<text x="50" y="204" fill="#bfb5a3" font-size="11" font-family="Libre Baskerville,Georgia,serif">✓ Morning walk (15 min)</text>
<circle cx="40" cy="218" r="2.5" fill="#e8753a"/>
<text x="50" y="222" fill="#bfb5a3" font-size="11" font-family="Libre Baskerville,Georgia,serif">✓ Inbox to zero</text>
<circle cx="40" cy="236" r="2.5" fill="#e8753a"/>
<text x="50" y="240" fill="#bfb5a3" font-size="11" font-family="Libre Baskerville,Georgia,serif">✓ Ship the auth flow PR</text>
<circle cx="40" cy="254" r="2.5" fill="#e8753a"/>
<text x="50" y="258" fill="#bfb5a3" font-size="11" font-family="Libre Baskerville,Georgia,serif">✓ Read for 20 minutes</text>
<circle cx="40" cy="272" r="2.5" fill="#e8753a"/>
<text x="50" y="276" fill="#bfb5a3" font-size="11" font-family="Libre Baskerville,Georgia,serif">○ Strength workout</text>
<circle cx="40" cy="290" r="2.5" fill="#e8753a"/>
<text x="50" y="294" fill="#bfb5a3" font-size="11" font-family="Libre Baskerville,Georgia,serif">○ Cook dinner at home</text>
<text x="32" y="320" fill="#bfb5a3" font-size="11" font-family="Libre Baskerville,Georgia,serif">Streak: 14 days. Best month yet.</text>
<text x="32" y="448" fill="#a0845c" font-size="9" font-family="JetBrains Mono,monospace" letter-spacing="2">TAGS</text>
<rect x="80" y="436" width="49" height="18" rx="2" fill="none" stroke="#a0845c"/>
<text x="104.5" y="449" text-anchor="middle" fill="#c4a87a" font-size="9" font-family="JetBrains Mono,monospace">daily</text>
<rect x="135" y="436" width="49" height="18" rx="2" fill="none" stroke="#a0845c"/>
<text x="159.5" y="449" text-anchor="middle" fill="#c4a87a" font-size="9" font-family="JetBrains Mono,monospace">goals</text>
</svg>