<svg xmlns="http://www.w3.org/2000/svg" width="720" height="480" viewBox="0 0 720 480" role="img" aria-label="Granary dashboard mockup">
<rect width="720" height="480" rx="8" fill="#1a1410"/>
<rect width="720" height="48" fill="#241e18"/>
<rect y="46" width="720" height="2" fill="#2e261e"/>
<circle cx="18" cy="24" r="5" fill="#c0392b"/>
<circle cx="36" cy="24" r="5" fill="#d4a843"/>
<circle cx="54" cy="24" r="5" fill="#5ba86e"/>
<rect x="72" y="12" width="6" height="24" rx="1.5" fill="#e8753a"/>
<rect x="83" y="12" width="6" height="24" rx="1.5" fill="#e8753a"/>
<rect x="94" y="12" width="6" height="24" rx="1.5" fill="#e8753a"/>
<rect x="72" y="21" width="28" height="6" rx="1.5" fill="#c4a87a"/>
<text x="112" y="28" fill="#c4a87a" font-size="11" font-family="JetBrains Mono,monospace" letter-spacing="2">STOCKYARD · GRANARY</text>
<rect x="624" y="15" width="78" height="18" rx="3" fill="none" stroke="#5ba86e" stroke-width="1"/>
<text x="663" y="27" text-anchor="middle" fill="#5ba86e" font-size="9" font-family="JetBrains Mono,monospace" letter-spacing="1">RUNNING</text>
<text x="16" y="74" fill="#c45d2c" font-size="10" font-family="JetBrains Mono,monospace" letter-spacing="3">OBJECTS · 173 TOTAL</text>
<rect x="580" y="60" width="60" height="22" rx="3" fill="#c45d2c" stroke="#c45d2c"/>
<text x="610" y="75" text-anchor="middle" fill="#f0e6d3" font-size="9" font-family="JetBrains Mono,monospace">GRID</text>
<rect x="644" y="60" width="60" height="22" rx="3" fill="#241e18" stroke="#2e261e"/>
<text x="674" y="75" text-anchor="middle" fill="#a0845c" font-size="9" font-family="JetBrains Mono,monospace">LIST</text>
<rect x="16" y="96" width="168" height="156" rx="4" fill="#5b8aa8" opacity="0.18"/>
<rect x="16" y="96" width="168" height="156" rx="4" fill="none" stroke="#5b8aa8" stroke-width="1.5" opacity="0.6"/>
<rect x="68.0" y="118.0" width="64" height="76" rx="3" fill="#1a1410" stroke="#5b8aa8" stroke-width="1.5"/>
<line x1="76.0" y1="136.0" x2="124.0" y2="136.0" stroke="#5b8aa8" stroke-width="1" opacity="0.6"/>
<line x1="76.0" y1="146.0" x2="124.0" y2="146.0" stroke="#5b8aa8" stroke-width="1" opacity="0.6"/>
<line x1="76.0" y1="156.0" x2="112.0" y2="156.0" stroke="#5b8aa8" stroke-width="1" opacity="0.6"/>
<line x1="76.0" y1="168.0" x2="124.0" y2="168.0" stroke="#5b8aa8" stroke-width="1" opacity="0.4"/>
<line x1="76.0" y1="178.0" x2="106.0" y2="178.0" stroke="#5b8aa8" stroke-width="1" opacity="0.4"/>
<rect x="16" y="216" width="168" height="36" fill="#1a1410" opacity="0.85"/>
<text x="26" y="234" fill="#f0e6d3" font-size="10" font-family="JetBrains Mono,monospace">quarterly-report.pdf</text>
<text x="26" y="246" fill="#a0845c" font-size="8" font-family="JetBrains Mono,monospace">4.2 MB</text>
<rect x="192" y="96" width="168" height="156" rx="4" fill="#e8753a" opacity="0.18"/>
<rect x="192" y="96" width="168" height="156" rx="4" fill="none" stroke="#e8753a" stroke-width="1.5" opacity="0.6"/>
<rect x="244.0" y="118.0" width="64" height="76" rx="3" fill="#1a1410" stroke="#e8753a" stroke-width="1.5"/>
<line x1="252.0" y1="136.0" x2="300.0" y2="136.0" stroke="#e8753a" stroke-width="1" opacity="0.6"/>
<line x1="252.0" y1="146.0" x2="300.0" y2="146.0" stroke="#e8753a" stroke-width="1" opacity="0.6"/>
<line x1="252.0" y1="156.0" x2="288.0" y2="156.0" stroke="#e8753a" stroke-width="1" opacity="0.6"/>
<line x1="252.0" y1="168.0" x2="300.0" y2="168.0" stroke="#e8753a" stroke-width="1" opacity="0.4"/>
<line x1="252.0" y1="178.0" x2="282.0" y2="178.0" stroke="#e8753a" stroke-width="1" opacity="0.4"/>
<rect x="192" y="216" width="168" height="36" fill="#1a1410" opacity="0.85"/>
<text x="202" y="234" fill="#f0e6d3" font-size="10" font-family="JetBrains Mono,monospace">logo-final.svg</text>
<text x="202" y="246" fill="#a0845c" font-size="8" font-family="JetBrains Mono,monospace">12 KB</text>
<rect x="368" y="96" width="168" height="156" rx="4" fill="#d4a843" opacity="0.18"/>
<rect x="368" y="96" width="168" height="156" rx="4" fill="none" stroke="#d4a843" stroke-width="1.5" opacity="0.6"/>
<rect x="420.0" y="118.0" width="64" height="76" rx="3" fill="#1a1410" stroke="#d4a843" stroke-width="1.5"/>
<line x1="428.0" y1="136.0" x2="476.0" y2="136.0" stroke="#d4a843" stroke-width="1" opacity="0.6"/>
<line x1="428.0" y1="146.0" x2="476.0" y2="146.0" stroke="#d4a843" stroke-width="1" opacity="0.6"/>
<line x1="428.0" y1="156.0" x2="464.0" y2="156.0" stroke="#d4a843" stroke-width="1" opacity="0.6"/>
<line x1="428.0" y1="168.0" x2="476.0" y2="168.0" stroke="#d4a843" stroke-width="1" opacity="0.4"/>
<line x1="428.0" y1="178.0" x2="458.0" y2="178.0" stroke="#d4a843" stroke-width="1" opacity="0.4"/>
<rect x="368" y="216" width="168" height="36" fill="#1a1410" opacity="0.85"/>
<text x="378" y="234" fill="#f0e6d3" font-size="10" font-family="JetBrains Mono,monospace">budget-2025.xlsx</text>
<text x="378" y="246" fill="#a0845c" font-size="8" font-family="JetBrains Mono,monospace">89 KB</text>
<rect x="544" y="96" width="168" height="156" rx="4" fill="#8a6ba8" opacity="0.18"/>
<rect x="544" y="96" width="168" height="156" rx="4" fill="none" stroke="#8a6ba8" stroke-width="1.5" opacity="0.6"/>
<rect x="596.0" y="118.0" width="64" height="76" rx="3" fill="#1a1410" stroke="#8a6ba8" stroke-width="1.5"/>
<line x1="604.0" y1="136.0" x2="652.0" y2="136.0" stroke="#8a6ba8" stroke-width="1" opacity="0.6"/>
<line x1="604.0" y1="146.0" x2="652.0" y2="146.0" stroke="#8a6ba8" stroke-width="1" opacity="0.6"/>
<line x1="604.0" y1="156.0" x2="640.0" y2="156.0" stroke="#8a6ba8" stroke-width="1" opacity="0.6"/>
<line x1="604.0" y1="168.0" x2="652.0" y2="168.0" stroke="#8a6ba8" stroke-width="1" opacity="0.4"/>
<line x1="604.0" y1="178.0" x2="634.0" y2="178.0" stroke="#8a6ba8" stroke-width="1" opacity="0.4"/>
<rect x="544" y="216" width="168" height="36" fill="#1a1410" opacity="0.85"/>
<text x="554" y="234" fill="#f0e6d3" font-size="10" font-family="JetBrains Mono,monospace">launch.pptx</text>
<text x="554" y="246" fill="#a0845c" font-size="8" font-family="JetBrains Mono,monospace">8.4 MB</text>
<rect x="16" y="260" width="168" height="156" rx="4" fill="#d4a843" opacity="0.18"/>
<rect x="16" y="260" width="168" height="156" rx="4" fill="none" stroke="#d4a843" stroke-width="1.5" opacity="0.6"/>
<rect x="68.0" y="282.0" width="64" height="76" rx="3" fill="#1a1410" stroke="#d4a843" stroke-width="1.5"/>
<line x1="76.0" y1="300.0" x2="124.0" y2="300.0" stroke="#d4a843" stroke-width="1" opacity="0.6"/>
<line x1="76.0" y1="310.0" x2="124.0" y2="310.0" stroke="#d4a843" stroke-width="1" opacity="0.6"/>
<line x1="76.0" y1="320.0" x2="112.0" y2="320.0" stroke="#d4a843" stroke-width="1" opacity="0.6"/>
<line x1="76.0" y1="332.0" x2="124.0" y2="332.0" stroke="#d4a843" stroke-width="1" opacity="0.4"/>
<line x1="76.0" y1="342.0" x2="106.0" y2="342.0" stroke="#d4a843" stroke-width="1" opacity="0.4"/>
<rect x="16" y="380" width="168" height="36" fill="#1a1410" opacity="0.85"/>
<text x="26" y="398" fill="#f0e6d3" font-size="10" font-family="JetBrains Mono,monospace">contract-acme.pdf</text>
<text x="26" y="410" fill="#a0845c" font-size="8" font-family="JetBrains Mono,monospace">2.1 MB</text>
<rect x="192" y="260" width="168" height="156" rx="4" fill="#c45d2c" opacity="0.18"/>
<rect x="192" y="260" width="168" height="156" rx="4" fill="none" stroke="#c45d2c" stroke-width="1.5" opacity="0.6"/>
<rect x="244.0" y="282.0" width="64" height="76" rx="3" fill="#1a1410" stroke="#c45d2c" stroke-width="1.5"/>
<line x1="252.0" y1="300.0" x2="300.0" y2="300.0" stroke="#c45d2c" stroke-width="1" opacity="0.6"/>
<line x1="252.0" y1="310.0" x2="300.0" y2="310.0" stroke="#c45d2c" stroke-width="1" opacity="0.6"/>
<line x1="252.0" y1="320.0" x2="288.0" y2="320.0" stroke="#c45d2c" stroke-width="1" opacity="0.6"/>
<line x1="252.0" y1="332.0" x2="300.0" y2="332.0" stroke="#c45d2c" stroke-width="1" opacity="0.4"/>
<line x1="252.0" y1="342.0" x2="282.0" y2="342.0" stroke="#c45d2c" stroke-width="1" opacity="0.4"/>
<rect x="192" y="380" width="168" height="36" fill="#1a1410" opacity="0.85"/>
<text x="202" y="398" fill="#f0e6d3" font-size="10" font-family="JetBrains Mono,monospace">team-photo.jpg</text>
<text x="202" y="410" fill="#a0845c" font-size="8" font-family="JetBrains Mono,monospace">1.8 MB</text>
<rect x="368" y="260" width="168" height="156" rx="4" fill="#a0845c" opacity="0.18"/>
<rect x="368" y="260" width="168" height="156" rx="4" fill="none" stroke="#a0845c" stroke-width="1.5" opacity="0.6"/>
<rect x="420.0" y="282.0" width="64" height="76" rx="3" fill="#1a1410" stroke="#a0845c" stroke-width="1.5"/>
<line x1="428.0" y1="300.0" x2="476.0" y2="300.0" stroke="#a0845c" stroke-width="1" opacity="0.6"/>
<line x1="428.0" y1="310.0" x2="476.0" y2="310.0" stroke="#a0845c" stroke-width="1" opacity="0.6"/>
<line x1="428.0" y1="320.0" x2="464.0" y2="320.0" stroke="#a0845c" stroke-width="1" opacity="0.6"/>
<line x1="428.0" y1="332.0" x2="476.0" y2="332.0" stroke="#a0845c" stroke-width="1" opacity="0.4"/>
<line x1="428.0" y1="342.0" x2="458.0" y2="342.0" stroke="#a0845c" stroke-width="1" opacity="0.4"/>
<rect x="368" y="380" width="168" height="36" fill="#1a1410" opacity="0.85"/>
<text x="378" y="398" fill="#f0e6d3" font-size="10" font-family="JetBrains Mono,monospace">demo-video.mp4</text>
<text x="378" y="410" fill="#a0845c" font-size="8" font-family="JetBrains Mono,monospace">24 MB</text>
<rect x="544" y="260" width="168" height="156" rx="4" fill="#c4a87a" opacity="0.18"/>
<rect x="544" y="260" width="168" height="156" rx="4" fill="none" stroke="#c4a87a" stroke-width="1.5" opacity="0.6"/>
<rect x="596.0" y="282.0" width="64" height="76" rx="3" fill="#1a1410" stroke="#c4a87a" stroke-width="1.5"/>
<line x1="604.0" y1="300.0" x2="652.0" y2="300.0" stroke="#c4a87a" stroke-width="1" opacity="0.6"/>
<line x1="604.0" y1="310.0" x2="652.0" y2="310.0" stroke="#c4a87a" stroke-width="1" opacity="0.6"/>
<line x1="604.0" y1="320.0" x2="640.0" y2="320.0" stroke="#c4a87a" stroke-width="1" opacity="0.6"/>
<line x1="604.0" y1="332.0" x2="652.0" y2="332.0" stroke="#c4a87a" stroke-width="1" opacity="0.4"/>
<line x1="604.0" y1="342.0" x2="634.0" y2="342.0" stroke="#c4a87a" stroke-width="1" opacity="0.4"/>
<rect x="544" y="380" width="168" height="36" fill="#1a1410" opacity="0.85"/>
<text x="554" y="398" fill="#f0e6d3" font-size="10" font-family="JetBrains Mono,monospace">metrics.csv</text>
<text x="554" y="410" fill="#a0845c" font-size="8" font-family="JetBrains Mono,monospace">412 KB</text>
</svg>