<svg xmlns="http://www.w3.org/2000/svg" width="720" height="480" viewBox="0 0 720 480" role="img" aria-label="Saloon dashboard mockup">
<rect width="720" height="480" rx="8" fill="#1a1410"/>
<rect width="720" height="48" fill="#241e18"/>
<rect y="46" width="720" height="2" fill="#2e261e"/>
<circle cx="18" cy="24" r="5" fill="#c0392b"/>
<circle cx="36" cy="24" r="5" fill="#d4a843"/>
<circle cx="54" cy="24" r="5" fill="#5ba86e"/>
<rect x="72" y="12" width="6" height="24" rx="1.5" fill="#e8753a"/>
<rect x="83" y="12" width="6" height="24" rx="1.5" fill="#e8753a"/>
<rect x="94" y="12" width="6" height="24" rx="1.5" fill="#e8753a"/>
<rect x="72" y="21" width="28" height="6" rx="1.5" fill="#c4a87a"/>
<text x="112" y="28" fill="#c4a87a" font-size="11" font-family="JetBrains Mono,monospace" letter-spacing="2">STOCKYARD · SALOON</text>
<rect x="624" y="15" width="78" height="18" rx="3" fill="none" stroke="#5ba86e" stroke-width="1"/>
<text x="663" y="27" text-anchor="middle" fill="#5ba86e" font-size="9" font-family="JetBrains Mono,monospace" letter-spacing="1">RUNNING</text>
<text x="16" y="74" fill="#c45d2c" font-size="10" font-family="JetBrains Mono,monospace" letter-spacing="3"># GENERAL</text>
<text x="704" y="74" text-anchor="end" fill="#a0845c" font-size="10" font-family="JetBrains Mono,monospace">8 ONLINE</text>
<rect x="16" y="92" width="688" height="332" rx="6" fill="#241e18" stroke="#2e261e"/>
<circle cx="38" cy="130" r="14" fill="#e8753a" opacity="0.85"/>
<text x="38" y="134" text-anchor="middle" fill="#1a1410" font-size="10" font-family="JetBrains Mono,monospace" font-weight="bold">SC</text>
<text x="72" y="122" fill="#c4a87a" font-size="9" font-family="JetBrains Mono,monospace">Sarah</text>
<text x="132" y="122" fill="#a0845c" font-size="8" font-family="JetBrains Mono,monospace">9:42 AM</text>
<rect x="60" y="126" width="314" height="28" rx="4" fill="#2e261e"/>
<text x="70" y="144" fill="#f0e6d3" font-size="10" font-family="JetBrains Mono,monospace">morning! deploying the new auth flow today</text>
<circle cx="666" cy="180" r="14" fill="#d4a843" opacity="0.85"/>
<text x="666" y="184" text-anchor="middle" fill="#1a1410" font-size="10" font-family="JetBrains Mono,monospace" font-weight="bold">MW</text>
<text x="391" y="172" fill="#c4a87a" font-size="9" font-family="JetBrains Mono,monospace">Marcus</text>
<text x="451" y="172" fill="#a0845c" font-size="8" font-family="JetBrains Mono,monospace">9:44 AM</text>
<rect x="379" y="176" width="265" height="28" rx="4" fill="#c45d2c"/>
<text x="389" y="194" fill="#f0e6d3" font-size="10" font-family="JetBrains Mono,monospace">i can pair on testing after standup</text>
<circle cx="38" cy="230" r="14" fill="#5ba86e" opacity="0.85"/>
<text x="38" y="234" text-anchor="middle" fill="#1a1410" font-size="10" font-family="JetBrains Mono,monospace" font-weight="bold">PP</text>
<text x="72" y="222" fill="#c4a87a" font-size="9" font-family="JetBrains Mono,monospace">Priya</text>
<text x="132" y="222" fill="#a0845c" font-size="8" font-family="JetBrains Mono,monospace">9:46 AM</text>
<rect x="60" y="226" width="356" height="28" rx="4" fill="#2e261e"/>
<text x="70" y="244" fill="#f0e6d3" font-size="10" font-family="JetBrains Mono,monospace">fyi the staging db is locked, running migrations</text>
<circle cx="666" cy="280" r="14" fill="#5b8aa8" opacity="0.85"/>
<text x="666" y="284" text-anchor="middle" fill="#1a1410" font-size="10" font-family="JetBrains Mono,monospace" font-weight="bold">JL</text>
<text x="391" y="272" fill="#c4a87a" font-size="9" font-family="JetBrains Mono,monospace">James</text>
<text x="451" y="272" fill="#a0845c" font-size="8" font-family="JetBrains Mono,monospace">9:48 AM</text>
<rect x="379" y="276" width="265" height="28" rx="4" fill="#c45d2c"/>
<text x="389" y="294" fill="#f0e6d3" font-size="10" font-family="JetBrains Mono,monospace">how long? i can use local if needed</text>
<circle cx="38" cy="330" r="14" fill="#5ba86e" opacity="0.85"/>
<text x="38" y="334" text-anchor="middle" fill="#1a1410" font-size="10" font-family="JetBrains Mono,monospace" font-weight="bold">PP</text>
<text x="72" y="322" fill="#c4a87a" font-size="9" font-family="JetBrains Mono,monospace">Priya</text>
<text x="132" y="322" fill="#a0845c" font-size="8" font-family="JetBrains Mono,monospace">9:50 AM</text>
<rect x="60" y="326" width="286" height="28" rx="4" fill="#2e261e"/>
<text x="70" y="344" fill="#f0e6d3" font-size="10" font-family="JetBrains Mono,monospace">10 more minutes. local should be fine.</text>
<circle cx="666" cy="380" r="14" fill="#e8753a" opacity="0.85"/>
<text x="666" y="384" text-anchor="middle" fill="#1a1410" font-size="10" font-family="JetBrains Mono,monospace" font-weight="bold">SC</text>
<text x="342" y="372" fill="#c4a87a" font-size="9" font-family="JetBrains Mono,monospace">Sarah</text>
<text x="402" y="372" fill="#a0845c" font-size="8" font-family="JetBrains Mono,monospace">9:52 AM</text>
<rect x="330" y="376" width="314" height="28" rx="4" fill="#c45d2c"/>
<text x="340" y="394" fill="#f0e6d3" font-size="10" font-family="JetBrains Mono,monospace">sounds good. ill ping when staging is back</text>
<rect x="16" y="432" width="688" height="32" rx="3" fill="#241e18" stroke="#2e261e"/>
<text x="28" y="452" fill="#a0845c" font-size="10" font-family="JetBrains Mono,monospace">message #general</text>
<rect x="660" y="436" width="44" height="24" rx="2" fill="#c45d2c"/>
<text x="682" y="452" text-anchor="middle" fill="#f0e6d3" font-size="9" font-family="JetBrains Mono,monospace">SEND</text>
</svg>