<svg xmlns="http://www.w3.org/2000/svg" width="720" height="480" viewBox="0 0 720 480" role="img" aria-label="Curator dashboard mockup">
<rect width="720" height="480" rx="8" fill="#1a1410"/>
<rect width="720" height="48" fill="#241e18"/>
<rect y="46" width="720" height="2" fill="#2e261e"/>
<circle cx="18" cy="24" r="5" fill="#c0392b"/>
<circle cx="36" cy="24" r="5" fill="#d4a843"/>
<circle cx="54" cy="24" r="5" fill="#5ba86e"/>
<rect x="72" y="12" width="6" height="24" rx="1.5" fill="#e8753a"/>
<rect x="83" y="12" width="6" height="24" rx="1.5" fill="#e8753a"/>
<rect x="94" y="12" width="6" height="24" rx="1.5" fill="#e8753a"/>
<rect x="72" y="21" width="28" height="6" rx="1.5" fill="#c4a87a"/>
<text x="112" y="28" fill="#c4a87a" font-size="11" font-family="JetBrains Mono,monospace" letter-spacing="2">STOCKYARD · CURATOR</text>
<rect x="624" y="15" width="78" height="18" rx="3" fill="none" stroke="#5ba86e" stroke-width="1"/>
<text x="663" y="27" text-anchor="middle" fill="#5ba86e" font-size="9" font-family="JetBrains Mono,monospace" letter-spacing="1">RUNNING</text>
<text x="16" y="74" fill="#c45d2c" font-size="10" font-family="JetBrains Mono,monospace" letter-spacing="3">RECIPES</text>
<rect x="610" y="60" width="94" height="22" rx="3" fill="#c45d2c"/>
<text x="657" y="75" text-anchor="middle" fill="#f0e6d3" font-size="9" font-family="JetBrains Mono,monospace">+ NEW</text>
<rect x="16" y="92" width="256" height="372" rx="4" fill="#241e18" stroke="#2e261e"/>
<rect x="26" y="102" width="236" height="24" rx="2" fill="#1a1410" stroke="#2e261e"/>
<text x="34" y="119" fill="#a0845c" font-size="9" font-family="JetBrains Mono,monospace">search...</text>
<circle cx="38" cy="154" r="13" fill="#e8753a" opacity="0.85"/>
<text x="38" y="158" text-anchor="middle" fill="#1a1410" font-size="10" font-family="JetBrains Mono,monospace" font-weight="bold">SC</text>
<text x="60" y="154" fill="#f0e6d3" font-size="11" font-family="JetBrains Mono,monospace">Sarah Chen</text>
<text x="60" y="168" fill="#a0845c" font-size="9" font-family="JetBrains Mono,monospace">ACME Corp</text>
<rect x="20" y="186" width="248" height="48" rx="2" fill="#2e261e"/>
<rect x="20" y="186" width="3" height="48" fill="#e8753a"/>
<circle cx="38" cy="206" r="13" fill="#d4a843" opacity="0.85"/>
<text x="38" y="210" text-anchor="middle" fill="#1a1410" font-size="10" font-family="JetBrains Mono,monospace" font-weight="bold">MW</text>
<text x="60" y="206" fill="#f0e6d3" font-size="11" font-family="JetBrains Mono,monospace">Marcus Webb</text>
<text x="60" y="220" fill="#a0845c" font-size="9" font-family="JetBrains Mono,monospace">Northwind Trading</text>
<circle cx="38" cy="258" r="13" fill="#5ba86e" opacity="0.85"/>
<text x="38" y="262" text-anchor="middle" fill="#1a1410" font-size="10" font-family="JetBrains Mono,monospace" font-weight="bold">PP</text>
<text x="60" y="258" fill="#f0e6d3" font-size="11" font-family="JetBrains Mono,monospace">Priya Patel</text>
<text x="60" y="272" fill="#a0845c" font-size="9" font-family="JetBrains Mono,monospace">Foo Industries</text>
<circle cx="38" cy="310" r="13" fill="#5b8aa8" opacity="0.85"/>
<text x="38" y="314" text-anchor="middle" fill="#1a1410" font-size="10" font-family="JetBrains Mono,monospace" font-weight="bold">JL</text>
<text x="60" y="310" fill="#f0e6d3" font-size="11" font-family="JetBrains Mono,monospace">James Liu</text>
<text x="60" y="324" fill="#a0845c" font-size="9" font-family="JetBrains Mono,monospace">Bar Holdings</text>
<circle cx="38" cy="362" r="13" fill="#8a6ba8" opacity="0.85"/>
<text x="38" y="366" text-anchor="middle" fill="#1a1410" font-size="10" font-family="JetBrains Mono,monospace" font-weight="bold">ER</text>
<text x="60" y="362" fill="#f0e6d3" font-size="11" font-family="JetBrains Mono,monospace">Elena Rodriguez</text>
<text x="60" y="376" fill="#a0845c" font-size="9" font-family="JetBrains Mono,monospace">Baz Manufacturing</text>
<circle cx="38" cy="414" r="13" fill="#c4a87a" opacity="0.85"/>
<text x="38" y="418" text-anchor="middle" fill="#1a1410" font-size="10" font-family="JetBrains Mono,monospace" font-weight="bold">TK</text>
<text x="60" y="414" fill="#f0e6d3" font-size="11" font-family="JetBrains Mono,monospace">Tomas Kowalski</text>
<text x="60" y="428" fill="#a0845c" font-size="9" font-family="JetBrains Mono,monospace">Quux Capital</text>
<rect x="284" y="92" width="420" height="372" rx="4" fill="#241e18" stroke="#2e261e"/>
<circle cx="328" cy="136" r="26" fill="#d4a843" opacity="0.85"/>
<text x="328" y="142" text-anchor="middle" fill="#1a1410" font-size="18" font-family="JetBrains Mono,monospace" font-weight="bold">MW</text>
<text x="366" y="130" fill="#f0e6d3" font-size="18" font-family="Libre Baskerville,Georgia,serif" font-weight="bold">Marcus Webb</text>
<text x="366" y="150" fill="#c4a87a" font-size="11" font-family="JetBrains Mono,monospace">Northwind Trading</text>
<text x="302" y="184" fill="#a0845c" font-size="8" font-family="JetBrains Mono,monospace" letter-spacing="2">EMAIL</text>
<text x="302" y="199" fill="#bfb5a3" font-size="11" font-family="JetBrains Mono,monospace">marcus@webb.io</text>
<text x="302" y="214" fill="#a0845c" font-size="8" font-family="JetBrains Mono,monospace" letter-spacing="2">PHONE</text>
<text x="302" y="229" fill="#bfb5a3" font-size="11" font-family="JetBrains Mono,monospace">+1 (555) 412-8421</text>
<text x="302" y="244" fill="#a0845c" font-size="8" font-family="JetBrains Mono,monospace" letter-spacing="2">LAST CONTACT</text>
<text x="302" y="259" fill="#bfb5a3" font-size="11" font-family="JetBrains Mono,monospace">Sept 24, 2026</text>
<text x="302" y="292" fill="#c45d2c" font-size="9" font-family="JetBrains Mono,monospace" letter-spacing="2">RECENT ACTIVITY</text>
<circle cx="308" cy="318" r="3" fill="#e8753a"/>
<line x1="308" y1="322" x2="308" y2="338" stroke="#2e261e" stroke-width="1"/>
<text x="322" y="322" fill="#f0e6d3" font-size="10" font-family="JetBrains Mono,monospace">Email sent: Q4 proposal</text>
<text x="322" y="334" fill="#a0845c" font-size="8" font-family="JetBrains Mono,monospace">Sept 24</text>
<circle cx="308" cy="346" r="3" fill="#e8753a"/>
<line x1="308" y1="350" x2="308" y2="366" stroke="#2e261e" stroke-width="1"/>
<text x="322" y="350" fill="#f0e6d3" font-size="10" font-family="JetBrains Mono,monospace">Call: 30m discovery</text>
<text x="322" y="362" fill="#a0845c" font-size="8" font-family="JetBrains Mono,monospace">Sept 18</text>
<circle cx="308" cy="374" r="3" fill="#e8753a"/>
<line x1="308" y1="378" x2="308" y2="394" stroke="#2e261e" stroke-width="1"/>
<text x="322" y="378" fill="#f0e6d3" font-size="10" font-family="JetBrains Mono,monospace">Email reply: pricing questions</text>
<text x="322" y="390" fill="#a0845c" font-size="8" font-family="JetBrains Mono,monospace">Sept 11</text>
<circle cx="308" cy="402" r="3" fill="#e8753a"/>

<text x="322" y="406" fill="#f0e6d3" font-size="10" font-family="JetBrains Mono,monospace">Meeting: kickoff</text>
<text x="322" y="418" fill="#a0845c" font-size="8" font-family="JetBrains Mono,monospace">Aug 28</text>
</svg>