<svg xmlns="http://www.w3.org/2000/svg" width="720" height="480" viewBox="0 0 720 480" role="img" aria-label="Bellringer dashboard mockup">
<rect width="720" height="480" rx="8" fill="#1a1410"/>
<rect width="720" height="48" fill="#241e18"/>
<rect y="46" width="720" height="2" fill="#2e261e"/>
<circle cx="18" cy="24" r="5" fill="#c0392b"/>
<circle cx="36" cy="24" r="5" fill="#d4a843"/>
<circle cx="54" cy="24" r="5" fill="#5ba86e"/>
<rect x="72" y="12" width="6" height="24" rx="1.5" fill="#e8753a"/>
<rect x="83" y="12" width="6" height="24" rx="1.5" fill="#e8753a"/>
<rect x="94" y="12" width="6" height="24" rx="1.5" fill="#e8753a"/>
<rect x="72" y="21" width="28" height="6" rx="1.5" fill="#c4a87a"/>
<text x="112" y="28" fill="#c4a87a" font-size="11" font-family="JetBrains Mono,monospace" letter-spacing="2">STOCKYARD · BELLRINGER</text>
<rect x="624" y="15" width="78" height="18" rx="3" fill="none" stroke="#5ba86e" stroke-width="1"/>
<text x="663" y="27" text-anchor="middle" fill="#5ba86e" font-size="9" font-family="JetBrains Mono,monospace" letter-spacing="1">RUNNING</text>
<rect x="16" y="64" width="510" height="30" rx="3" fill="#241e18" stroke="#2e261e"/>
<circle cx="34" cy="79" r="6" fill="none" stroke="#a0845c" stroke-width="1.2"/>
<line x1="38" y1="83" x2="43" y2="88" stroke="#a0845c" stroke-width="1.2"/>
<text x="50" y="83" fill="#a0845c" font-size="11" font-family="JetBrains Mono,monospace">search notifications...</text>
<rect x="540" y="64" width="76" height="30" rx="3" fill="#c45d2c" stroke="#c45d2c"/>
<text x="578" y="83" text-anchor="middle" fill="#f0e6d3" font-size="10" font-family="JetBrains Mono,monospace">ALL</text>
<rect x="624" y="64" width="80" height="30" rx="3" fill="#241e18" stroke="#2e261e"/>
<text x="664" y="83" text-anchor="middle" fill="#a0845c" font-size="10" font-family="JetBrains Mono,monospace">FILTER ▾</text>
<text x="16" y="118" fill="#c45d2c" font-size="10" font-family="JetBrains Mono,monospace" letter-spacing="3">NOTIFICATIONS</text>
<text x="704" y="118" text-anchor="end" fill="#a0845c" font-size="10" font-family="JetBrains Mono,monospace">5939 TOTAL</text>
<rect x="16" y="134" width="688" height="40" rx="3" fill="#241e18" stroke="#2e261e"/>
<circle cx="34" cy="154" r="4" fill="#5ba86e"/>
<text x="52" y="158" fill="#f0e6d3" font-size="12" font-family="JetBrains Mono,monospace">Welcome email — 1,247 sent · 0 bounced</text>
<text x="52" y="170" fill="#a0845c" font-size="9" font-family="JetBrains Mono,monospace">channel: email</text>
<text x="700" y="158" text-anchor="end" fill="#c4a87a" font-size="10" font-family="JetBrains Mono,monospace">just now</text>
<text x="700" y="170" text-anchor="end" fill="#a0845c" font-size="9" font-family="JetBrains Mono,monospace">→</text>
<rect x="16" y="180" width="688" height="40" rx="3" fill="#241e18" stroke="#2e261e"/>
<circle cx="34" cy="200" r="4" fill="#5ba86e"/>
<text x="52" y="204" fill="#f0e6d3" font-size="12" font-family="JetBrains Mono,monospace">Trial ending reminder — 89 sent · 2 bounced</text>
<text x="52" y="216" fill="#a0845c" font-size="9" font-family="JetBrains Mono,monospace">channel: sms</text>
<text x="700" y="204" text-anchor="end" fill="#c4a87a" font-size="10" font-family="JetBrains Mono,monospace">4m ago</text>
<text x="700" y="216" text-anchor="end" fill="#a0845c" font-size="9" font-family="JetBrains Mono,monospace">→</text>
<rect x="16" y="226" width="688" height="40" rx="3" fill="#241e18" stroke="#2e261e"/>
<circle cx="34" cy="246" r="4" fill="#d4a843"/>
<text x="52" y="250" fill="#f0e6d3" font-size="12" font-family="JetBrains Mono,monospace">Payment failed — 12 sent · 0 bounced</text>
<text x="52" y="262" fill="#a0845c" font-size="9" font-family="JetBrains Mono,monospace">channel: push</text>
<text x="700" y="250" text-anchor="end" fill="#c4a87a" font-size="10" font-family="JetBrains Mono,monospace">14m ago</text>
<text x="700" y="262" text-anchor="end" fill="#a0845c" font-size="9" font-family="JetBrains Mono,monospace">→</text>
<rect x="16" y="272" width="688" height="40" rx="3" fill="#241e18" stroke="#2e261e"/>
<circle cx="34" cy="292" r="4" fill="#5ba86e"/>
<text x="52" y="296" fill="#f0e6d3" font-size="12" font-family="JetBrains Mono,monospace">Weekly digest — 4,212 sent · 18 bounced</text>
<text x="52" y="308" fill="#a0845c" font-size="9" font-family="JetBrains Mono,monospace">channel: webhook</text>
<text x="700" y="296" text-anchor="end" fill="#c4a87a" font-size="10" font-family="JetBrains Mono,monospace">1h ago</text>
<text x="700" y="308" text-anchor="end" fill="#a0845c" font-size="9" font-family="JetBrains Mono,monospace">→</text>
<rect x="16" y="318" width="688" height="40" rx="3" fill="#241e18" stroke="#2e261e"/>
<circle cx="34" cy="338" r="4" fill="#e8753a"/>
<text x="52" y="342" fill="#f0e6d3" font-size="12" font-family="JetBrains Mono,monospace">Password reset — 8 sent · 0 bounced</text>
<text x="52" y="354" fill="#a0845c" font-size="9" font-family="JetBrains Mono,monospace">channel: email</text>
<text x="700" y="342" text-anchor="end" fill="#c4a87a" font-size="10" font-family="JetBrains Mono,monospace">3h ago</text>
<text x="700" y="354" text-anchor="end" fill="#a0845c" font-size="9" font-family="JetBrains Mono,monospace">→</text>
<rect x="16" y="364" width="688" height="40" rx="3" fill="#241e18" stroke="#2e261e"/>
<circle cx="34" cy="384" r="4" fill="#5ba86e"/>
<text x="52" y="388" fill="#f0e6d3" font-size="12" font-family="JetBrains Mono,monospace">New feature announcement — 2,841 sent</text>
<text x="52" y="400" fill="#a0845c" font-size="9" font-family="JetBrains Mono,monospace">channel: slack</text>
<text x="700" y="388" text-anchor="end" fill="#c4a87a" font-size="10" font-family="JetBrains Mono,monospace">yesterday</text>
<text x="700" y="400" text-anchor="end" fill="#a0845c" font-size="9" font-family="JetBrains Mono,monospace">→</text>
<rect x="16" y="410" width="688" height="40" rx="3" fill="#241e18" stroke="#2e261e"/>
<circle cx="34" cy="430" r="4" fill="#d4a843"/>
<text x="52" y="434" fill="#f0e6d3" font-size="12" font-family="JetBrains Mono,monospace">Account locked — 3 sent · 0 bounced</text>
<text x="52" y="446" fill="#a0845c" font-size="9" font-family="JetBrains Mono,monospace">channel: email</text>
<text x="700" y="434" text-anchor="end" fill="#c4a87a" font-size="10" font-family="JetBrains Mono,monospace">2d ago</text>
<text x="700" y="446" text-anchor="end" fill="#a0845c" font-size="9" font-family="JetBrains Mono,monospace">→</text>
</svg>